<?xml version="1.0" encoding="UTF-8" standalone="no"?>
<!DOCTYPE svg PUBLIC "-//W3C//DTD SVG 1.1//EN" "http://www.w3.org/Graphics/SVG/1.1/DTD/svg11.dtd">
<svg version="1.1" xmlns="http://www.w3.org/2000/svg" xmlns:xlink="http://www.w3.org/1999/xlink" preserveAspectRatio="xMidYMid meet" viewBox="0 0 640 640" width="640" height="640"><defs><path d="M940.43 198.14C940.43 198.14 940.43 198.14 940.43 198.14C940.43 439.34 940.43 573.34 940.43 600.14C940.43 600.14 940.43 600.14 940.43 600.14C591.23 600.14 397.23 600.14 358.43 600.14C358.43 600.14 358.43 600.14 358.43 600.14C358.43 358.94 358.43 224.94 358.43 198.14C358.43 198.14 358.43 198.14 358.43 198.14C707.63 198.14 901.63 198.14 940.43 198.14Z" id="a4XUjSSIz9"></path><path d="M372.48 95.09L370.68 98.09L369.68 98.09L369.68 88.09L370.68 88.09L372.48 91.09L378.08 91.09L375.68 83.09L377.68 83.09L382.48 91.09C385.6 91.09 387.33 91.09 387.68 91.09C388.78 91.09 389.68 91.98 389.68 93.09C389.68 94.19 388.78 95.09 387.68 95.09C387.33 95.09 385.6 95.09 382.48 95.09L377.68 103.09L375.68 103.09L378.08 95.09L372.48 95.09Z" id="b3g8HFYO50"></path><path d="" id="c2aCQcb0xw"></path><path d="M940.43 198.14C940.43 439.34 940.43 573.34 940.43 600.14C940.43 600.14 940.43 600.14 940.43 600.14C591.23 600.14 397.23 600.14 358.43 600.14C358.43 600.14 358.43 600.14 358.43 600.14C358.43 358.94 358.43 224.94 358.43 198.14C358.43 198.14 358.43 198.14 358.43 198.14C707.63 198.14 901.63 198.14 940.43 198.14C940.43 198.14 940.43 198.14 940.43 198.14Z" id="i1jcdYxiov"></path><path d="M370.68 98.09L369.68 98.09L369.68 88.09L370.68 88.09L372.48 91.09L378.08 91.09L375.68 83.09L377.68 83.09C380.56 87.89 382.16 90.56 382.48 91.09C385.6 91.09 387.33 91.09 387.68 91.09C388.78 91.09 389.68 91.98 389.68 93.09C389.68 94.19 388.78 95.09 387.68 95.09C387.33 95.09 385.6 95.09 382.48 95.09C382.16 95.62 380.56 98.29 377.68 103.09L375.68 103.09L378.08 95.09L372.48 95.09L370.68 98.09Z" id="d1lVRPgp3P"></path><path d="M370.68 98.09L369.68 98.09L369.68 88.09L370.68 88.09L372.48 91.09L378.08 91.09L375.68 83.09L377.68 83.09C380.56 87.89 382.16 90.56 382.48 91.09C385.6 91.09 387.33 91.09 387.68 91.09C388.78 91.09 389.68 91.98 389.68 93.09C389.68 94.19 388.78 95.09 387.68 95.09C387.33 95.09 385.6 95.09 382.48 95.09C382.16 95.62 380.56 98.29 377.68 103.09L375.68 103.09L378.08 95.09L372.48 95.09L370.68 98.09Z" id="a2gq2CoUY"></path><path d="M89.6 384L32 480L0 480L0 160L32 160L89.6 256L268.8 256L192 0L256 0L409.6 256C509.44 256 564.91 256 576 256C611.35 256 640 284.65 640 320C640 355.35 611.35 384 576 384C564.91 384 509.44 384 409.6 384L256 640L192 640L268.8 384L89.6 384Z" id="aW9CsnIF5"></path></defs><g><g><g><use xlink:href="#a4XUjSSIz9" opacity="1" fill="#000000" fill-opacity="0"></use><g><use xlink:href="#a4XUjSSIz9" opacity="1" fill-opacity="0" stroke="#000000" stroke-width="1" stroke-opacity="0"></use></g></g><g><use xlink:href="#b3g8HFYO50" opacity="1" fill="#1cbcbf" fill-opacity="1"></use><g><use xlink:href="#b3g8HFYO50" opacity="1" fill-opacity="0" stroke="#000000" stroke-width="1" stroke-opacity="0"></use></g></g><g><use xlink:href="#c2aCQcb0xw" opacity="1" fill="#ffffff" fill-opacity="1"></use><g><use xlink:href="#c2aCQcb0xw" opacity="1" fill-opacity="0" stroke="#000000" stroke-width="1.5" stroke-opacity="1"></use></g></g><g><use xlink:href="#i1jcdYxiov" opacity="1" fill="#000000" fill-opacity="0"></use><g><use xlink:href="#i1jcdYxiov" opacity="1" fill-opacity="0" stroke="#000000" stroke-width="1" stroke-opacity="0"></use></g></g><g><use xlink:href="#d1lVRPgp3P" opacity="1" fill="#1cbcbf" fill-opacity="1"></use><g><use xlink:href="#d1lVRPgp3P" opacity="1" fill-opacity="0" stroke="#000000" stroke-width="1" stroke-opacity="0"></use></g></g><g><use xlink:href="#a2gq2CoUY" opacity="1" fill="#000000" fill-opacity="0"></use><g><use xlink:href="#a2gq2CoUY" opacity="1" fill-opacity="0" stroke="#000000" stroke-width="1" stroke-opacity="0"></use></g></g><g><use xlink:href="#aW9CsnIF5" opacity="1" fill="#1cbcbf" fill-opacity="1"></use><g><use xlink:href="#aW9CsnIF5" opacity="1" fill-opacity="0" stroke="#000000" stroke-width="1" stroke-opacity="0"></use></g></g></g></g></svg>