<?xml version="1.0" encoding="UTF-8" standalone="no"?>
<!DOCTYPE svg PUBLIC "-//W3C//DTD SVG 1.1//EN" "http://www.w3.org/Graphics/SVG/1.1/DTD/svg11.dtd">
<svg version="1.1" xmlns="http://www.w3.org/2000/svg" xmlns:xlink="http://www.w3.org/1999/xlink" preserveAspectRatio="xMidYMid meet" viewBox="0 0 640 640" width="640" height="640"><defs><path d="M940.43 198.14C940.43 198.14 940.43 198.14 940.43 198.14C940.43 439.34 940.43 573.34 940.43 600.14C940.43 600.14 940.43 600.14 940.43 600.14C591.23 600.14 397.23 600.14 358.43 600.14C358.43 600.14 358.43 600.14 358.43 600.14C358.43 358.94 358.43 224.94 358.43 198.14C358.43 198.14 358.43 198.14 358.43 198.14C707.63 198.14 901.63 198.14 940.43 198.14Z" id="a4XUjSSIz9"></path><path d="" id="c2aCQcb0xw"></path><path d="M940.43 198.14C940.43 439.34 940.43 573.34 940.43 600.14C940.43 600.14 940.43 600.14 940.43 600.14C591.23 600.14 397.23 600.14 358.43 600.14C358.43 600.14 358.43 600.14 358.43 600.14C358.43 358.94 358.43 224.94 358.43 198.14C358.43 198.14 358.43 198.14 358.43 198.14C707.63 198.14 901.63 198.14 940.43 198.14C940.43 198.14 940.43 198.14 940.43 198.14Z" id="i1jcdYxiov"></path><path d="M389.25 64.21L391.83 64.47L394.38 64.84L396.9 65.3L399.38 65.86L401.82 66.51L404.23 67.26L406.59 68.1L408.91 69.03L411.19 70.04L413.41 71.14L415.59 72.33L417.71 73.59L419.78 74.93L421.8 76.35L423.75 77.84L425.65 79.41L427.48 81.04L429.25 82.75L430.96 84.52L432.59 86.35L434.16 88.25L435.65 90.2L437.07 92.22L438.41 94.29L439.67 96.41L440.86 98.59L441.96 100.81L442.97 103.09L443.9 105.41L444.74 107.77L445.49 110.18L446.14 112.62L446.7 115.1L447.16 117.62L447.53 120.17L447.79 122.75L447.95 125.36L448 128L448 160L512 160L512 608L128 608L128 160L192 160L192 128L192.05 125.36L192.21 122.75L192.47 120.17L192.84 117.62L193.3 115.1L193.86 112.62L194.51 110.18L195.26 107.77L196.1 105.41L197.03 103.09L198.04 100.81L199.14 98.59L200.33 96.41L201.59 94.29L202.93 92.22L204.35 90.2L205.84 88.25L207.41 86.35L209.04 84.52L210.75 82.75L212.52 81.04L214.35 79.41L216.25 77.84L218.2 76.35L220.22 74.93L222.29 73.59L224.41 72.33L226.59 71.14L228.81 70.04L231.09 69.03L233.41 68.1L235.77 67.26L238.18 66.51L240.62 65.86L243.1 65.3L245.62 64.84L248.17 64.47L250.75 64.21L253.36 64.05L256 64L384 64L386.64 64.05L389.25 64.21ZM256 160L384 160L384 128L256 128L256 160Z" id="c320xnrKA"></path></defs><g><g><g><use xlink:href="#a4XUjSSIz9" opacity="1" fill="#000000" fill-opacity="0"></use><g><use xlink:href="#a4XUjSSIz9" opacity="1" fill-opacity="0" stroke="#000000" stroke-width="1" stroke-opacity="0"></use></g></g><g><use xlink:href="#c2aCQcb0xw" opacity="1" fill="#ffffff" fill-opacity="1"></use><g><use xlink:href="#c2aCQcb0xw" opacity="1" fill-opacity="0" stroke="#000000" stroke-width="1.5" stroke-opacity="1"></use></g></g><g><use xlink:href="#i1jcdYxiov" opacity="1" fill="#000000" fill-opacity="0"></use><g><use xlink:href="#i1jcdYxiov" opacity="1" fill-opacity="0" stroke="#000000" stroke-width="1" stroke-opacity="0"></use></g></g><g><use xlink:href="#c320xnrKA" opacity="1" fill="#1cbcbf" fill-opacity="1"></use><g><use xlink:href="#c320xnrKA" opacity="1" fill-opacity="0" stroke="#000000" stroke-width="1" stroke-opacity="0"></use></g></g></g></g></svg>