<?xml version="1.0" encoding="UTF-8" standalone="no"?>
<!DOCTYPE svg PUBLIC "-//W3C//DTD SVG 1.1//EN" "http://www.w3.org/Graphics/SVG/1.1/DTD/svg11.dtd">
<svg version="1.1" xmlns="http://www.w3.org/2000/svg" xmlns:xlink="http://www.w3.org/1999/xlink" preserveAspectRatio="xMidYMid meet" viewBox="0 0 640 640" width="640" height="640"><defs><path d="M940.43 198.14C940.43 198.14 940.43 198.14 940.43 198.14C940.43 439.34 940.43 573.34 940.43 600.14C940.43 600.14 940.43 600.14 940.43 600.14C591.23 600.14 397.23 600.14 358.43 600.14C358.43 600.14 358.43 600.14 358.43 600.14C358.43 358.94 358.43 224.94 358.43 198.14C358.43 198.14 358.43 198.14 358.43 198.14C707.63 198.14 901.63 198.14 940.43 198.14Z" id="a4XUjSSIz9"></path><path d="M372.48 95.09L370.68 98.09L369.68 98.09L369.68 88.09L370.68 88.09L372.48 91.09L378.08 91.09L375.68 83.09L377.68 83.09L382.48 91.09C385.6 91.09 387.33 91.09 387.68 91.09C388.78 91.09 389.68 91.98 389.68 93.09C389.68 94.19 388.78 95.09 387.68 95.09C387.33 95.09 385.6 95.09 382.48 95.09L377.68 103.09L375.68 103.09L378.08 95.09L372.48 95.09Z" id="b3g8HFYO50"></path><path d="" id="c2aCQcb0xw"></path><path d="M329.32 0.48L333.11 0.93L336.9 1.53L340.69 2.3L344.47 3.22L348.24 4.3L352 5.54L355.7 6.94L359.32 8.47L362.84 10.13L366.26 11.92L369.59 13.83L372.82 15.86L375.95 18.01L378.98 20.27L381.9 22.64L384.72 25.11L387.42 27.68L390.02 30.35L392.51 33.11L394.88 35.96L397.14 38.89L399.28 41.9L401.3 44.99L403.2 48.15L404.98 51.38L406.63 54.68L408.15 58.03L409.55 61.44L410.81 64.91L411.95 68.42L412.94 71.98L413.81 75.58L414.53 79.22L415.11 82.88L415.55 86.58L415.85 90.31L416.01 94.05L416.01 97.81L415.87 101.59L415.57 105.37L415.12 109.16L414.52 112.95L413.75 116.74L412.83 120.52L411.75 124.29L410.51 128.05L409.76 130.09L408.97 132.11L408.14 134.1L407.26 136.07L406.34 138.02L405.38 139.94L404.38 141.84L403.34 143.71L402.26 145.55L401.13 147.37L399.97 149.16L398.78 150.92L397.54 152.65L396.27 154.35L394.96 156.03L393.61 157.67L392.23 159.29L390.82 160.87L389.37 162.42L387.88 163.93L386.37 165.42L384.82 166.87L383.23 168.28L381.62 169.66L379.98 171.01L378.3 172.32L376.6 173.59L374.87 174.83L373.11 176.02L371.32 177.18L369.5 178.31L367.66 179.39L365.78 180.43L363.89 181.43L361.97 182.39L360.02 183.31L358.05 184.19L356.06 185.02L354.04 185.81L352 186.56L352 256L480 256L480 320L352 320L352 574.08L356.23 573.52L360.44 572.89L364.63 572.19L368.81 571.42L372.97 570.58L377.11 569.68L381.23 568.71L385.33 567.67L389.41 566.56L393.47 565.39L397.5 564.15L401.51 562.84L405.5 561.47L409.46 560.03L413.4 558.53L417.31 556.97L421.19 555.34L425.04 553.65L428.87 551.89L432.66 550.07L436.43 548.19L440.16 546.25L443.86 544.25L447.53 542.18L451.17 540.05L454.77 537.87L458.33 535.62L461.86 533.31L465.35 530.95L468.81 528.52L472.22 526.04L475.6 523.5L478.94 520.9L482.24 518.24L485.49 515.53L488.71 512.76L491.88 509.93L495 507.05L498.08 504.11L501.12 501.12L455.68 455.68L636.8 455.68L546.24 546.24L536.72 555.37L526.93 564.04L516.88 572.24L506.58 579.97L496.05 587.23L485.29 594.02L474.34 600.35L463.19 606.2L451.87 611.59L440.4 616.51L428.77 620.96L417.01 624.94L405.14 628.45L393.17 631.5L381.11 634.08L368.97 636.18L356.78 637.82L344.54 638.99L332.28 639.7L320 639.93L307.72 639.7L295.46 638.99L283.22 637.82L271.03 636.18L258.89 634.08L246.83 631.5L234.86 628.45L222.99 624.94L211.23 620.96L199.6 616.51L188.13 611.59L176.81 606.2L165.66 600.35L154.71 594.02L143.95 587.23L133.42 579.97L123.12 572.24L113.07 564.04L103.28 555.37L93.76 546.24L3.2 455.68L184.32 455.68L138.88 501.12L143.49 504.38L148.06 507.57L152.58 510.68L157.05 513.72L161.48 516.69L165.87 519.58L170.2 522.4L174.5 525.14L178.75 527.81L182.95 530.41L187.11 532.94L191.22 535.39L195.29 537.76L199.31 540.07L203.29 542.29L207.22 544.45L211.11 546.53L214.95 548.54L218.74 550.47L222.49 552.34L226.2 554.12L229.86 555.84L233.47 557.48L237.04 559.04L240.57 560.53L244.05 561.95L247.48 563.3L250.87 564.57L254.21 565.77L257.51 566.89L260.76 567.94L263.97 568.92L267.13 569.82L270.25 570.65L273.32 571.41L276.35 572.09L279.33 572.7L282.26 573.23L285.15 573.69L288 574.08L288 320L160 320L160 256L288 256L288 186.56L284.3 185.17L280.68 183.64L277.16 181.97L273.74 180.18L270.41 178.27L267.18 176.24L264.05 174.09L261.02 171.83L258.1 169.46L255.28 166.99L252.58 164.42L249.98 161.75L247.49 158.99L245.12 156.14L242.86 153.21L240.72 150.2L238.7 147.11L236.8 143.95L235.02 140.72L233.37 137.42L231.85 134.07L230.45 130.66L229.19 127.19L228.05 123.68L227.06 120.12L226.19 116.52L225.47 112.89L224.89 109.22L224.45 105.52L224.15 101.8L223.99 98.05L223.99 94.29L224.13 90.51L224.43 86.73L224.88 82.94L225.48 79.15L226.25 75.36L227.17 71.58L228.25 67.81L229.49 64.05L230.88 60.35L232.41 56.73L234.08 53.21L235.87 49.79L237.78 46.46L239.81 43.23L241.96 40.1L244.22 37.07L246.59 34.15L249.06 31.33L251.63 28.63L254.3 26.03L257.06 23.54L259.91 21.17L262.84 18.91L265.85 16.77L268.94 14.75L272.1 12.85L275.33 11.07L278.63 9.42L281.98 7.9L285.39 6.5L288.86 5.24L292.37 4.1L295.93 3.11L299.53 2.24L303.16 1.52L306.83 0.94L310.53 0.5L314.25 0.2L318 0.05L321.76 0.04L325.54 0.19L329.32 0.48ZM317.38 64.11L316.08 64.24L314.81 64.42L313.55 64.65L312.31 64.93L311.09 65.26L309.89 65.63L308.7 66.05L307.54 66.51L306.41 67.02L305.29 67.57L304.21 68.16L303.14 68.79L302.11 69.47L301.1 70.17L300.12 70.92L299.17 71.7L298.26 72.52L297.37 73.37L296.52 74.26L295.7 75.17L294.92 76.12L294.17 77.1L293.47 78.11L292.79 79.14L292.16 80.21L291.57 81.29L291.02 82.41L290.51 83.54L290.05 84.7L289.63 85.89L289.26 87.09L288.93 88.31L288.65 89.55L288.42 90.81L288.24 92.08L288.11 93.38L288.03 94.68L288 96L288.03 97.32L288.11 98.62L288.24 99.92L288.42 101.19L288.65 102.45L288.93 103.69L289.26 104.91L289.63 106.11L290.05 107.3L290.51 108.46L291.02 109.59L291.57 110.71L292.16 111.79L292.79 112.86L293.47 113.89L294.17 114.9L294.92 115.88L295.7 116.83L296.52 117.74L297.37 118.63L298.26 119.48L299.17 120.3L300.12 121.08L301.1 121.83L302.11 122.53L303.14 123.21L304.21 123.84L305.29 124.43L306.41 124.98L307.54 125.49L308.7 125.95L309.89 126.37L311.09 126.74L312.31 127.07L313.55 127.35L314.81 127.58L316.08 127.76L317.38 127.89L318.68 127.97L320 128L321.32 127.97L322.62 127.89L323.92 127.76L325.19 127.58L326.45 127.35L327.69 127.07L328.91 126.74L330.11 126.37L331.3 125.95L332.46 125.49L333.59 124.98L334.71 124.43L335.79 123.84L336.86 123.21L337.89 122.53L338.9 121.83L339.88 121.08L340.83 120.3L341.74 119.48L342.63 118.63L343.48 117.74L344.3 116.83L345.08 115.88L345.83 114.9L346.53 113.89L347.21 112.86L347.84 111.79L348.43 110.71L348.98 109.59L349.49 108.46L349.95 107.3L350.37 106.11L350.74 104.91L351.07 103.69L351.35 102.45L351.58 101.19L351.76 99.92L351.89 98.62L351.97 97.32L352 96L351.97 94.68L351.89 93.38L351.76 92.08L351.58 90.81L351.35 89.55L351.07 88.31L350.74 87.09L350.37 85.89L349.95 84.7L349.49 83.54L348.98 82.41L348.43 81.29L347.84 80.21L347.21 79.14L346.53 78.11L345.83 77.1L345.08 76.12L344.3 75.17L343.48 74.26L342.63 73.37L341.74 72.52L340.83 71.7L339.88 70.92L338.9 70.17L337.89 69.47L336.86 68.79L335.79 68.16L334.71 67.57L333.59 67.02L332.46 66.51L331.3 66.05L330.11 65.63L328.91 65.26L327.69 64.93L326.45 64.65L325.19 64.42L323.92 64.24L322.62 64.11L321.32 64.03L320 64L318.68 64.03L317.38 64.11Z" id="aBVLxzUBg"></path></defs><g><g><g><use xlink:href="#a4XUjSSIz9" opacity="1" fill="#000000" fill-opacity="0"></use><g><use xlink:href="#a4XUjSSIz9" opacity="1" fill-opacity="0" stroke="#000000" stroke-width="1" stroke-opacity="0"></use></g></g><g><use xlink:href="#b3g8HFYO50" opacity="1" fill="#1cbcbf" fill-opacity="1"></use><g><use xlink:href="#b3g8HFYO50" opacity="1" fill-opacity="0" stroke="#000000" stroke-width="1" stroke-opacity="0"></use></g></g><g><use xlink:href="#c2aCQcb0xw" opacity="1" fill="#ffffff" fill-opacity="1"></use><g><use xlink:href="#c2aCQcb0xw" opacity="1" fill-opacity="0" stroke="#000000" stroke-width="1.5" stroke-opacity="1"></use></g></g><g><use xlink:href="#aBVLxzUBg" opacity="1" fill="#1cbcbf" fill-opacity="1"></use><g><use xlink:href="#aBVLxzUBg" opacity="1" fill-opacity="0" stroke="#000000" stroke-width="1" stroke-opacity="0"></use></g></g></g></g></svg>