<?xml version="1.0" encoding="UTF-8" standalone="no"?>
<!DOCTYPE svg PUBLIC "-//W3C//DTD SVG 1.1//EN" "http://www.w3.org/Graphics/SVG/1.1/DTD/svg11.dtd">
<svg version="1.1" xmlns="http://www.w3.org/2000/svg" xmlns:xlink="http://www.w3.org/1999/xlink" preserveAspectRatio="xMidYMid meet" viewBox="0 0 640 640" width="640" height="640"><defs><path d="M940.43 198.14C940.43 198.14 940.43 198.14 940.43 198.14C940.43 439.34 940.43 573.34 940.43 600.14C940.43 600.14 940.43 600.14 940.43 600.14C591.23 600.14 397.23 600.14 358.43 600.14C358.43 600.14 358.43 600.14 358.43 600.14C358.43 358.94 358.43 224.94 358.43 198.14C358.43 198.14 358.43 198.14 358.43 198.14C707.63 198.14 901.63 198.14 940.43 198.14Z" id="a4XUjSSIz9"></path><path d="M372.48 95.09L370.68 98.09L369.68 98.09L369.68 88.09L370.68 88.09L372.48 91.09L378.08 91.09L375.68 83.09L377.68 83.09L382.48 91.09C385.6 91.09 387.33 91.09 387.68 91.09C388.78 91.09 389.68 91.98 389.68 93.09C389.68 94.19 388.78 95.09 387.68 95.09C387.33 95.09 385.6 95.09 382.48 95.09L377.68 103.09L375.68 103.09L378.08 95.09L372.48 95.09Z" id="b3g8HFYO50"></path><path d="" id="c2aCQcb0xw"></path><path d="M576 128L578.64 128.05L581.25 128.21L583.83 128.47L586.38 128.84L588.9 129.3L591.38 129.86L593.82 130.51L596.23 131.26L598.59 132.1L600.91 133.03L603.19 134.04L605.41 135.14L607.59 136.33L609.71 137.59L611.78 138.93L613.8 140.35L615.75 141.84L617.65 143.41L619.48 145.04L621.25 146.75L622.96 148.52L624.59 150.35L626.16 152.25L627.65 154.2L629.07 156.22L630.41 158.29L631.67 160.41L632.86 162.59L633.96 164.81L634.97 167.09L635.9 169.41L636.74 171.77L637.49 174.18L638.14 176.62L638.7 179.1L639.16 181.62L639.53 184.17L639.79 186.75L639.95 189.36L640 192L640 512L639.95 514.64L639.79 517.25L639.53 519.83L639.16 522.38L638.7 524.9L638.14 527.38L637.49 529.82L636.74 532.23L635.9 534.59L634.97 536.91L633.96 539.19L632.86 541.41L631.67 543.59L630.41 545.71L629.07 547.78L627.65 549.8L626.16 551.75L624.59 553.65L622.96 555.48L621.25 557.25L619.48 558.96L617.65 560.59L615.75 562.16L613.8 563.65L611.78 565.07L609.71 566.41L607.59 567.67L605.41 568.86L603.19 569.96L600.91 570.97L598.59 571.9L596.23 572.74L593.82 573.49L591.38 574.14L588.9 574.7L586.38 575.16L583.83 575.53L581.25 575.79L578.64 575.95L576 576L64 576L61.36 575.95L58.75 575.79L56.17 575.53L53.62 575.16L51.1 574.7L48.62 574.14L46.18 573.49L43.77 572.74L41.41 571.9L39.09 570.97L36.81 569.96L34.59 568.86L32.41 567.67L30.29 566.41L28.22 565.07L26.2 563.65L24.25 562.16L22.35 560.59L20.52 558.96L18.75 557.25L17.04 555.48L15.41 553.65L13.84 551.75L12.35 549.8L10.93 547.78L9.59 545.71L8.33 543.59L7.14 541.41L6.04 539.19L5.03 536.91L4.1 534.59L3.26 532.23L2.51 529.82L1.86 527.38L1.3 524.9L0.84 522.38L0.47 519.83L0.21 517.25L0.05 514.64L0 512L0 192L1.44 188.84L2.9 185.76L4.36 182.76L5.82 179.84L7.3 177L8.78 174.24L10.28 171.56L11.78 168.96L13.28 166.44L14.8 164L16.32 161.64L17.86 159.36L19.4 157.16L20.94 155.04L22.5 153L24.06 151.04L25.64 149.16L27.22 147.36L28.8 145.64L30.4 144L32 142.44L33.62 140.96L35.24 139.56L36.86 138.24L38.5 137L40.14 135.84L41.8 134.76L43.46 133.76L45.12 132.84L46.8 132L48.48 131.24L50.18 130.56L51.88 129.96L53.58 129.44L55.3 129L57.02 128.64L58.76 128.36L60.5 128.16L62.24 128.04L64 128L160 128L224 64L416 64L480 128L576 128ZM306.88 192.53L300.42 193.19L294.05 194.09L287.75 195.25L281.55 196.65L275.44 198.29L269.43 200.16L263.52 202.25L257.72 204.57L252.04 207.11L246.47 209.86L241.03 212.81L235.72 215.97L230.54 219.33L225.51 222.87L220.61 226.6L215.87 230.51L211.29 234.6L206.86 238.86L202.6 243.29L198.51 247.87L194.6 252.61L190.87 257.51L187.33 262.54L183.97 267.72L180.81 273.03L177.86 278.47L175.11 284.04L172.57 289.72L170.25 295.52L168.16 301.43L166.29 307.44L164.65 313.55L163.25 319.75L162.09 326.05L161.19 332.42L160.53 338.88L160.13 345.4L160 352L160.13 358.6L160.53 365.12L161.19 371.58L162.09 377.95L163.25 384.25L164.65 390.45L166.29 396.56L168.16 402.57L170.25 408.48L172.57 414.28L175.11 419.96L177.86 425.53L180.81 430.97L183.97 436.28L187.33 441.46L190.87 446.49L194.6 451.39L198.51 456.13L202.6 460.71L206.86 465.14L211.29 469.4L215.87 473.49L220.61 477.4L225.51 481.13L230.54 484.67L235.72 488.03L241.03 491.19L246.47 494.14L252.04 496.89L257.72 499.43L263.52 501.75L269.43 503.84L275.44 505.71L281.55 507.35L287.75 508.75L294.05 509.91L300.42 510.81L306.88 511.47L313.4 511.87L320 512L326.6 511.87L333.12 511.47L339.58 510.81L345.95 509.91L352.25 508.75L358.45 507.35L364.56 505.71L370.57 503.84L376.48 501.75L382.28 499.43L387.96 496.89L393.53 494.14L398.97 491.19L404.28 488.03L409.46 484.67L414.49 481.13L419.39 477.4L424.13 473.49L428.71 469.4L433.14 465.14L437.4 460.71L441.49 456.13L445.4 451.39L449.13 446.49L452.67 441.46L456.03 436.28L459.19 430.97L462.14 425.53L464.89 419.96L467.43 414.28L469.75 408.48L471.84 402.57L473.71 396.56L475.35 390.45L476.75 384.25L477.91 377.95L478.81 371.58L479.47 365.12L479.87 358.6L480 352L479.87 345.4L479.47 338.88L478.81 332.42L477.91 326.05L476.75 319.75L475.35 313.55L473.71 307.44L471.84 301.43L469.75 295.52L467.43 289.72L464.89 284.04L462.14 278.47L459.19 273.03L456.03 267.72L452.67 262.54L449.13 257.51L445.4 252.61L441.49 247.87L437.4 243.29L433.14 238.86L428.71 234.6L424.13 230.51L419.39 226.6L414.49 222.87L409.46 219.33L404.28 215.97L398.97 212.81L393.53 209.86L387.96 207.11L382.28 204.57L376.48 202.25L370.57 200.16L364.56 198.29L358.45 196.65L352.25 195.25L345.95 194.09L339.58 193.19L333.12 192.53L326.6 192.13L320 192L313.4 192.13L306.88 192.53Z" id="fmqfbnmW5"></path></defs><g><g><g><use xlink:href="#a4XUjSSIz9" opacity="1" fill="#000000" fill-opacity="0"></use><g><use xlink:href="#a4XUjSSIz9" opacity="1" fill-opacity="0" stroke="#000000" stroke-width="1" stroke-opacity="0"></use></g></g><g><use xlink:href="#b3g8HFYO50" opacity="1" fill="#1cbcbf" fill-opacity="1"></use><g><use xlink:href="#b3g8HFYO50" opacity="1" fill-opacity="0" stroke="#000000" stroke-width="1" stroke-opacity="0"></use></g></g><g><use xlink:href="#c2aCQcb0xw" opacity="1" fill="#ffffff" fill-opacity="1"></use><g><use xlink:href="#c2aCQcb0xw" opacity="1" fill-opacity="0" stroke="#000000" stroke-width="1.5" stroke-opacity="1"></use></g></g><g><use xlink:href="#fmqfbnmW5" opacity="1" fill="#1cbcbf" fill-opacity="1"></use><g><use xlink:href="#fmqfbnmW5" opacity="1" fill-opacity="0" stroke="#000000" stroke-width="1" stroke-opacity="0"></use></g></g></g></g></svg>