<?xml version="1.0" encoding="UTF-8" standalone="no"?>
<!DOCTYPE svg PUBLIC "-//W3C//DTD SVG 1.1//EN" "http://www.w3.org/Graphics/SVG/1.1/DTD/svg11.dtd">
<svg version="1.1" xmlns="http://www.w3.org/2000/svg" xmlns:xlink="http://www.w3.org/1999/xlink" preserveAspectRatio="xMidYMid meet" viewBox="0 0 640 640" width="640" height="640"><defs><path d="M940.43 198.14C940.43 198.14 940.43 198.14 940.43 198.14C940.43 439.34 940.43 573.34 940.43 600.14C940.43 600.14 940.43 600.14 940.43 600.14C591.23 600.14 397.23 600.14 358.43 600.14C358.43 600.14 358.43 600.14 358.43 600.14C358.43 358.94 358.43 224.94 358.43 198.14C358.43 198.14 358.43 198.14 358.43 198.14C707.63 198.14 901.63 198.14 940.43 198.14Z" id="a4XUjSSIz9"></path><path d="" id="c2aCQcb0xw"></path><path d="M940.43 198.14C940.43 439.34 940.43 573.34 940.43 600.14C940.43 600.14 940.43 600.14 940.43 600.14C591.23 600.14 397.23 600.14 358.43 600.14C358.43 600.14 358.43 600.14 358.43 600.14C358.43 358.94 358.43 224.94 358.43 198.14C358.43 198.14 358.43 198.14 358.43 198.14C707.63 198.14 901.63 198.14 940.43 198.14C940.43 198.14 940.43 198.14 940.43 198.14Z" id="i1jcdYxiov"></path><path d="M636.52 444.44C623.27 502.58 571.63 543.87 512 544C476.8 544 195.2 544 160 544C71.63 544.09 -0.07 472.53 -0.16 384.16C-0.24 308.01 53.37 242.35 128 227.2C128 226.88 128 224.32 128 224C127.94 170.98 170.87 127.95 223.89 127.89C241.03 127.87 257.86 132.43 272.64 141.12C335.25 79.26 436.15 79.86 498.01 142.47C527.85 172.67 544.41 213.54 544 256C544 268.16 542.72 279.68 540.16 291.2C609.09 306.91 652.23 375.52 636.52 444.44Z" id="e2ajUUloPc"></path></defs><g><g><g><use xlink:href="#a4XUjSSIz9" opacity="1" fill="#000000" fill-opacity="0"></use><g><use xlink:href="#a4XUjSSIz9" opacity="1" fill-opacity="0" stroke="#000000" stroke-width="1" stroke-opacity="0"></use></g></g><g><use xlink:href="#c2aCQcb0xw" opacity="1" fill="#ffffff" fill-opacity="1"></use><g><use xlink:href="#c2aCQcb0xw" opacity="1" fill-opacity="0" stroke="#000000" stroke-width="1.5" stroke-opacity="1"></use></g></g><g><use xlink:href="#i1jcdYxiov" opacity="1" fill="#000000" fill-opacity="0"></use><g><use xlink:href="#i1jcdYxiov" opacity="1" fill-opacity="0" stroke="#000000" stroke-width="1" stroke-opacity="0"></use></g></g><g><use xlink:href="#e2ajUUloPc" opacity="1" fill="#1cbcbf" fill-opacity="1"></use><g><use xlink:href="#e2ajUUloPc" opacity="1" fill-opacity="0" stroke="#000000" stroke-width="1" stroke-opacity="0"></use></g></g></g></g></svg>