<?xml version="1.0" encoding="UTF-8" standalone="no"?>
<!DOCTYPE svg PUBLIC "-//W3C//DTD SVG 1.1//EN" "http://www.w3.org/Graphics/SVG/1.1/DTD/svg11.dtd">
<svg version="1.1" xmlns="http://www.w3.org/2000/svg" xmlns:xlink="http://www.w3.org/1999/xlink" preserveAspectRatio="xMidYMid meet" viewBox="0 0 640 640" width="640" height="640"><defs><path d="M178.56 167.69L171.52 173.78L164.78 180.1L158.34 186.65L152.22 193.4L146.4 200.36L140.9 207.5L135.7 214.83L130.82 222.33L126.25 229.98L121.99 237.78L118.05 245.73L114.43 253.8L111.12 261.98L108.13 270.28L105.46 278.67L103.12 287.15L101.09 295.71L99.38 304.33L98 313L96.95 321.73L96.22 330.48L95.81 339.26L95.74 348.06L95.99 356.86L96.58 365.65L97.49 374.43L98.74 383.18L100.32 391.89L102.23 400.55L104.48 409.16L107.07 417.69L109.99 426.15L113.25 434.52L116.85 442.78L120.8 450.94L125.08 458.98L129.71 466.88L134.68 474.65L139.99 482.26L145.65 489.71L148.89 493.71L152.2 497.61L155.59 501.43L159.06 505.16L162.6 508.81L166.21 512.36L169.9 515.83L173.65 519.2L177.47 522.49L181.35 525.68L185.3 528.78L189.31 531.78L193.38 534.69L197.51 537.51L201.7 540.22L205.94 542.84L210.24 545.37L214.59 547.79L218.99 550.12L223.43 552.34L227.93 554.46L232.47 556.49L237.05 558.4L241.67 560.22L246.34 561.93L251.04 563.53L255.78 565.03L260.56 566.42L265.37 567.71L270.21 568.88L275.08 569.95L279.98 570.91L284.91 571.75L289.86 572.48L294.83 573.11L299.83 573.61L304.85 574.01L309.88 574.28L314.93 574.44L320 574.49L329.23 574.29L338.37 573.7L347.41 572.75L356.33 571.44L365.14 569.77L373.82 567.75L382.37 565.39L390.79 562.7L399.05 559.68L407.17 556.35L415.12 552.7L422.91 548.75L430.52 544.5L437.95 539.97L445.19 535.15L452.23 530.06L459.07 524.71L465.7 519.09L472.11 513.22L478.3 507.11L484.25 500.76L489.97 494.18L495.44 487.38L500.65 480.36L505.61 473.14L510.29 465.71L514.7 458.1L518.83 450.29L522.66 442.31L526.2 434.16L529.44 425.85L532.36 417.38L534.97 408.76L537.25 400L539.2 391.11L540.8 382.09L542.06 372.95L542.97 363.7L543.51 354.34L543.68 344.89L543.62 339.75L543.45 334.62L543.16 329.51L542.76 324.41L542.26 319.34L541.64 314.29L540.92 309.26L540.08 304.26L539.15 299.28L538.1 294.34L536.95 289.42L535.7 284.54L534.34 279.69L532.88 274.87L531.32 270.1L529.66 265.36L527.9 260.66L526.03 256.01L524.07 251.4L522.01 246.83L519.86 242.31L517.6 237.85L515.26 233.43L512.81 229.06L510.27 224.75L507.64 220.49L504.92 216.29L502.1 212.15L499.2 208.07L496.2 204.06L493.11 200.1L489.94 196.22L486.68 192.4L483.33 188.65L479.89 184.97L476.37 181.36L472.76 177.83L469.07 174.37L465.3 170.99L461.44 167.69L506.88 121.18L515.75 129.26L524.22 137.62L532.29 146.26L539.95 155.17L547.22 164.32L554.07 173.7L560.52 183.31L566.56 193.12L572.2 203.13L577.43 213.31L582.24 223.67L586.65 234.18L590.64 244.83L594.22 255.61L597.38 266.5L600.13 277.49L602.46 288.57L604.38 299.73L605.87 310.94L606.95 322.21L607.61 333.5L607.84 344.82L607.66 356.14L607.05 367.46L606.01 378.76L604.55 390.02L602.66 401.24L600.35 412.4L597.61 423.48L594.43 434.48L590.83 445.38L586.79 456.17L582.32 466.83L577.42 477.35L572.08 487.72L566.31 497.92L560.1 507.93L553.45 517.76L546.36 527.38L538.84 536.78L530.95 545.86L522.77 554.53L514.33 562.79L505.63 570.63L496.69 578.07L487.53 585.08L478.14 591.69L468.55 597.87L458.78 603.64L448.82 608.99L438.71 613.92L428.44 618.42L418.03 622.51L407.5 626.17L396.86 629.41L386.12 632.23L375.3 634.61L364.4 636.57L353.44 638.11L342.44 639.21L331.4 639.88L320.35 640.12L309.28 639.93L298.23 639.31L287.19 638.25L276.18 636.75L265.22 634.82L254.32 632.45L243.49 629.64L232.74 626.39L222.09 622.71L211.56 618.57L201.14 614L190.86 608.98L180.74 603.52L170.77 597.61L160.98 591.25L151.38 584.45L141.98 577.19L132.8 569.49L123.93 561.41L115.46 553.05L107.39 544.41L99.73 535.5L92.46 526.35L85.61 516.97L79.16 507.36L73.12 497.55L67.48 487.54L62.25 477.36L57.44 467L53.03 456.49L49.04 445.84L45.46 435.06L42.3 424.17L39.55 413.18L37.22 402.1L35.3 390.94L33.81 379.73L32.73 368.46L32.07 357.17L31.84 345.85L32.02 334.53L32.63 323.21L33.67 311.91L35.13 300.65L37.02 289.43L39.33 278.27L42.07 267.19L45.25 256.19L48.85 245.29L52.89 234.5L57.36 223.84L62.26 213.32L67.6 202.95L73.37 192.75L79.58 182.74L86.23 172.91L93.32 163.29L100.84 153.89L101.58 153.01L102.32 152.13L103.06 151.26L103.81 150.39L104.56 149.52L105.31 148.66L106.07 147.8L106.83 146.94L107.59 146.09L108.36 145.24L109.13 144.39L109.9 143.54L110.67 142.7L111.45 141.86L112.23 141.02L113.02 140.19L113.81 139.36L114.6 138.54L115.4 137.71L116.19 136.89L116.99 136.08L117.8 135.26L118.61 134.45L119.42 133.64L120.23 132.84L121.05 132.04L121.87 131.24L122.69 130.45L123.52 129.66L124.34 128.87L125.18 128.09L126.01 127.31L126.85 126.53L127.69 125.75L128.53 124.98L129.38 124.22L130.23 123.45L131.08 122.69L131.94 121.93L132.8 121.18L133.12 121.18L178.56 167.69Z" id="ctpBUWeuc"></path><path d="M287.31 52.52L352.69 52.52L352.69 213.49L287.31 213.49L287.31 52.52Z" id="dtmrcG5Nq"></path></defs><g><g><g><use xlink:href="#ctpBUWeuc" opacity="1" fill="#1cbcbf" fill-opacity="1"></use><g><use xlink:href="#ctpBUWeuc" opacity="1" fill-opacity="0" stroke="#000000" stroke-width="1" stroke-opacity="0"></use></g></g><g><use xlink:href="#dtmrcG5Nq" opacity="1" fill="#1cbcbf" fill-opacity="1"></use></g></g></g></svg>