<?xml version="1.0" encoding="UTF-8" standalone="no"?>
<!DOCTYPE svg PUBLIC "-//W3C//DTD SVG 1.1//EN" "http://www.w3.org/Graphics/SVG/1.1/DTD/svg11.dtd">
<svg version="1.1" xmlns="http://www.w3.org/2000/svg" xmlns:xlink="http://www.w3.org/1999/xlink" preserveAspectRatio="xMidYMid meet" viewBox="0 0 640 640" width="640" height="640"><defs><path d="M940.43 198.14C940.43 198.14 940.43 198.14 940.43 198.14C940.43 439.34 940.43 573.34 940.43 600.14C940.43 600.14 940.43 600.14 940.43 600.14C591.23 600.14 397.23 600.14 358.43 600.14C358.43 600.14 358.43 600.14 358.43 600.14C358.43 358.94 358.43 224.94 358.43 198.14C358.43 198.14 358.43 198.14 358.43 198.14C707.63 198.14 901.63 198.14 940.43 198.14Z" id="a4XUjSSIz9"></path><path d="" id="c2aCQcb0xw"></path><path d="M940.43 198.14C940.43 439.34 940.43 573.34 940.43 600.14C940.43 600.14 940.43 600.14 940.43 600.14C591.23 600.14 397.23 600.14 358.43 600.14C358.43 600.14 358.43 600.14 358.43 600.14C358.43 358.94 358.43 224.94 358.43 198.14C358.43 198.14 358.43 198.14 358.43 198.14C707.63 198.14 901.63 198.14 940.43 198.14C940.43 198.14 940.43 198.14 940.43 198.14Z" id="i1jcdYxiov"></path><path d="M277.88 1.03L287.66 2.07L297.38 3.48L307.05 5.26L316.65 7.41L326.16 9.93L335.59 12.81L344.9 16.06L354.11 19.67L363.18 23.65L372.12 27.98L380.9 32.67L389.53 37.72L397.97 43.13L406.24 48.89L414.3 55L422.16 61.47L429.8 68.29L437.21 75.45L444.37 82.96L451.28 90.82L457.92 99.02L463.17 106.02L468.15 113.15L472.86 120.4L477.3 127.78L481.47 135.26L485.37 142.84L489.01 150.53L492.37 158.3L495.47 166.16L498.29 174.09L500.85 182.09L503.14 190.15L505.16 198.27L506.91 206.44L508.39 214.65L509.6 222.89L510.54 231.16L511.21 239.45L511.62 247.76L511.75 256.07L511.62 264.38L511.21 272.69L510.54 280.98L509.6 289.25L508.39 297.5L506.91 305.71L505.16 313.87L503.14 321.99L500.85 330.05L498.29 338.06L495.47 345.99L492.37 353.84L489.01 361.62L485.37 369.3L481.47 376.89L477.3 384.37L472.86 391.74L468.15 398.99L463.17 406.12L457.92 413.12L629.12 583.68L583.68 629.12L413.12 458.24L412.8 458.24L404.34 464.54L395.7 470.45L386.9 475.96L377.95 481.07L368.87 485.78L359.65 490.1L350.32 494.03L340.89 497.57L331.37 500.72L321.77 503.48L312.09 505.86L302.36 507.85L292.59 509.45L282.78 510.68L272.94 511.52L263.1 511.98L253.26 512.07L243.43 511.78L233.62 511.11L223.85 510.08L214.12 508.67L204.45 506.88L194.86 504.73L185.34 502.22L175.92 499.33L166.6 496.08L157.4 492.47L148.32 488.5L139.39 484.16L130.6 479.47L121.98 474.42L113.53 469.01L105.27 463.25L97.2 457.14L89.34 450.67L81.7 443.86L74.3 436.69L67.13 429.18L60.23 421.32L53.58 413.12L47.28 404.66L41.37 396.02L35.87 387.22L30.76 378.27L26.04 369.19L21.72 359.97L17.79 350.64L14.25 341.21L11.1 331.69L8.34 322.09L5.97 312.41L3.98 302.68L2.37 292.91L1.15 283.1L0.3 273.26L-0.16 263.42L-0.25 253.58L0.04 243.75L0.71 233.94L1.75 224.17L3.16 214.44L4.94 204.77L7.09 195.18L9.61 185.66L12.49 176.24L15.74 166.92L19.35 157.72L23.33 148.64L27.66 139.71L32.35 130.92L37.4 122.3L42.81 113.85L48.57 105.59L54.68 97.52L61.15 89.66L67.97 82.02L75.13 74.62L82.64 67.45L90.5 60.55L98.7 53.9L107.17 47.6L115.81 41.69L124.6 36.19L133.55 31.08L142.64 26.36L151.85 22.04L161.18 18.11L170.61 14.57L180.13 11.42L189.74 8.66L199.41 6.29L209.14 4.3L218.92 2.69L228.73 1.47L238.56 0.62L248.4 0.16L258.25 0.07L268.08 0.36L277.88 1.03ZM240.25 64.64L232.51 65.42L224.86 66.51L217.31 67.9L209.86 69.58L202.53 71.54L195.31 73.79L188.22 76.3L181.26 79.09L174.44 82.13L167.76 85.43L161.24 88.98L154.86 92.77L148.65 96.79L142.61 101.04L136.74 105.52L131.05 110.22L125.55 115.12L120.24 120.24L115.12 125.55L110.22 131.05L105.52 136.74L101.04 142.61L96.79 148.65L92.77 154.86L88.98 161.24L85.43 167.76L82.13 174.44L79.09 181.26L76.3 188.22L73.79 195.31L71.54 202.53L69.58 209.86L67.9 217.31L66.51 224.86L65.42 232.51L64.64 240.25L64.16 248.09L64 256L64.16 263.91L64.64 271.75L65.42 279.49L66.51 287.14L67.9 294.69L69.58 302.14L71.54 309.47L73.79 316.69L76.3 323.78L79.09 330.74L82.13 337.56L85.43 344.24L88.98 350.76L92.77 357.14L96.79 363.35L101.04 369.39L105.52 375.26L110.22 380.95L115.12 386.45L120.24 391.76L125.55 396.88L131.05 401.78L136.74 406.48L142.61 410.96L148.65 415.21L154.86 419.23L161.24 423.02L167.76 426.57L174.44 429.87L181.26 432.91L188.22 435.7L195.31 438.21L202.53 440.46L209.86 442.42L217.31 444.1L224.86 445.49L232.51 446.58L240.25 447.36L248.09 447.84L256 448L263.91 447.84L271.75 447.36L279.49 446.58L287.14 445.49L294.69 444.1L302.14 442.42L309.47 440.46L316.69 438.21L323.78 435.7L330.74 432.91L337.56 429.87L344.24 426.57L350.76 423.02L357.14 419.23L363.35 415.21L369.39 410.96L375.26 406.48L380.95 401.78L386.45 396.88L391.76 391.76L396.88 386.45L401.78 380.95L406.48 375.26L410.96 369.39L415.21 363.35L419.23 357.14L423.02 350.76L426.57 344.24L429.87 337.56L432.91 330.74L435.7 323.78L438.21 316.69L440.46 309.47L442.42 302.14L444.1 294.69L445.49 287.14L446.58 279.49L447.36 271.75L447.84 263.91L448 256L447.84 248.09L447.36 240.25L446.58 232.51L445.49 224.86L444.1 217.31L442.42 209.86L440.46 202.53L438.21 195.31L435.7 188.22L432.91 181.26L429.87 174.44L426.57 167.76L423.02 161.24L419.23 154.86L415.21 148.65L410.96 142.61L406.48 136.74L401.78 131.05L396.88 125.55L391.76 120.24L386.45 115.12L380.95 110.22L375.26 105.52L369.39 101.04L363.35 96.79L357.14 92.77L350.76 88.98L344.24 85.43L337.56 82.13L330.74 79.09L323.78 76.3L316.69 73.79L309.47 71.54L302.14 69.58L294.69 67.9L287.14 66.51L279.49 65.42L271.75 64.64L263.91 64.16L256 64L248.09 64.16L240.25 64.64Z" id="a3EZZPo1Ts"></path></defs><g><g><g><use xlink:href="#a4XUjSSIz9" opacity="1" fill="#000000" fill-opacity="0"></use><g><use xlink:href="#a4XUjSSIz9" opacity="1" fill-opacity="0" stroke="#000000" stroke-width="1" stroke-opacity="0"></use></g></g><g><use xlink:href="#c2aCQcb0xw" opacity="1" fill="#ffffff" fill-opacity="1"></use><g><use xlink:href="#c2aCQcb0xw" opacity="1" fill-opacity="0" stroke="#000000" stroke-width="1.5" stroke-opacity="1"></use></g></g><g><use xlink:href="#i1jcdYxiov" opacity="1" fill="#000000" fill-opacity="0"></use><g><use xlink:href="#i1jcdYxiov" opacity="1" fill-opacity="0" stroke="#000000" stroke-width="1" stroke-opacity="0"></use></g></g><g><use xlink:href="#a3EZZPo1Ts" opacity="1" fill="#1cbcbf" fill-opacity="1"></use><g><use xlink:href="#a3EZZPo1Ts" opacity="1" fill-opacity="0" stroke="#000000" stroke-width="1" stroke-opacity="0"></use></g></g></g></g></svg>