<?xml version="1.0" encoding="UTF-8" standalone="no"?>
<!DOCTYPE svg PUBLIC "-//W3C//DTD SVG 1.1//EN" "http://www.w3.org/Graphics/SVG/1.1/DTD/svg11.dtd">
<svg version="1.1" xmlns="http://www.w3.org/2000/svg" xmlns:xlink="http://www.w3.org/1999/xlink" preserveAspectRatio="xMidYMid meet" viewBox="0 0 640 640" width="640" height="640"><defs><path d="M940.43 198.14C940.43 198.14 940.43 198.14 940.43 198.14C940.43 439.34 940.43 573.34 940.43 600.14C940.43 600.14 940.43 600.14 940.43 600.14C591.23 600.14 397.23 600.14 358.43 600.14C358.43 600.14 358.43 600.14 358.43 600.14C358.43 358.94 358.43 224.94 358.43 198.14C358.43 198.14 358.43 198.14 358.43 198.14C707.63 198.14 901.63 198.14 940.43 198.14Z" id="a4XUjSSIz9"></path><path d="" id="c2aCQcb0xw"></path><path d="M940.43 198.14C940.43 439.34 940.43 573.34 940.43 600.14C940.43 600.14 940.43 600.14 940.43 600.14C591.23 600.14 397.23 600.14 358.43 600.14C358.43 600.14 358.43 600.14 358.43 600.14C358.43 358.94 358.43 224.94 358.43 198.14C358.43 198.14 358.43 198.14 358.43 198.14C707.63 198.14 901.63 198.14 940.43 198.14C940.43 198.14 940.43 198.14 940.43 198.14Z" id="i1jcdYxiov"></path><path d="M346.24 1.06L359.15 2.37L371.91 4.19L384.49 6.5L396.9 9.3L409.12 12.57L421.14 16.31L432.96 20.51L444.56 25.15L455.93 30.22L467.06 35.72L477.94 41.63L488.56 47.94L498.92 54.65L508.99 61.74L518.77 69.2L528.25 77.03L537.42 85.21L546.27 93.73L554.79 102.58L562.97 111.75L570.8 121.23L578.26 131.01L585.35 141.08L592.06 151.44L598.37 162.06L604.28 172.94L609.78 184.07L614.85 195.44L619.49 207.04L623.69 218.86L627.43 230.88L630.7 243.1L633.5 255.51L635.81 268.09L637.63 280.85L638.94 293.76L639.73 306.81L640 320L639.73 333.19L638.94 346.24L637.63 359.15L635.81 371.91L633.5 384.49L630.7 396.9L627.43 409.12L623.69 421.14L619.49 432.96L614.85 444.56L609.78 455.93L604.28 467.06L598.37 477.94L592.06 488.56L585.35 498.92L578.26 508.99L570.8 518.77L562.97 528.25L554.79 537.42L546.27 546.27L537.42 554.79L528.25 562.97L518.77 570.8L508.99 578.26L498.92 585.35L488.56 592.06L477.94 598.37L467.06 604.28L455.93 609.78L444.56 614.85L432.96 619.49L421.14 623.69L409.12 627.43L396.9 630.7L384.49 633.5L371.91 635.81L359.15 637.63L346.24 638.94L333.19 639.73L320 640L306.81 639.73L293.76 638.94L280.85 637.63L268.09 635.81L255.51 633.5L243.1 630.7L230.88 627.43L218.86 623.69L207.04 619.49L195.44 614.85L184.07 609.78L172.94 604.28L162.06 598.37L151.44 592.06L141.08 585.35L131.01 578.26L121.23 570.8L111.75 562.97L102.58 554.79L93.73 546.27L85.21 537.42L77.03 528.25L69.2 518.77L61.74 508.99L54.65 498.92L47.94 488.56L41.63 477.94L35.72 467.06L30.22 455.93L25.15 444.56L20.51 432.96L16.31 421.14L12.57 409.12L9.3 396.9L6.5 384.49L4.19 371.91L2.37 359.15L1.06 346.24L0.27 333.19L0 320L0.27 306.81L1.06 293.76L2.37 280.85L4.19 268.09L6.5 255.51L9.3 243.1L12.57 230.88L16.31 218.86L20.51 207.04L25.15 195.44L30.22 184.07L35.72 172.94L41.63 162.06L47.94 151.44L54.65 141.08L61.74 131.01L69.2 121.23L77.03 111.75L85.21 102.58L93.73 93.73L102.58 85.21L111.75 77.03L121.23 69.2L131.01 61.74L141.08 54.65L151.44 47.94L162.06 41.63L172.94 35.72L184.07 30.22L195.44 25.15L207.04 20.51L218.86 16.31L230.88 12.57L243.1 9.3L255.51 6.5L268.09 4.19L280.85 2.37L293.76 1.06L306.81 0.27L320 0L333.19 0.27L346.24 1.06ZM288 544L352 544L352 480L288 480L288 544ZM309.5 96.42L304.34 96.95L299.24 97.68L294.2 98.6L289.24 99.72L284.35 101.03L279.54 102.53L274.82 104.2L270.18 106.06L265.63 108.09L261.18 110.29L256.82 112.65L252.58 115.18L248.43 117.86L244.4 120.7L240.49 123.68L236.7 126.81L233.03 130.08L229.49 133.49L226.08 137.03L222.81 140.7L219.68 144.49L216.7 148.4L213.86 152.43L211.18 156.58L208.65 160.82L206.29 165.18L204.09 169.63L202.06 174.18L200.2 178.82L198.53 183.54L197.03 188.35L195.72 193.24L194.6 198.2L193.68 203.24L192.95 208.34L192.42 213.5L192.11 218.72L192 224L256 224L256.05 221.36L256.21 218.75L256.47 216.17L256.84 213.62L257.3 211.1L257.86 208.62L258.51 206.18L259.26 203.77L260.1 201.41L261.03 199.09L262.04 196.81L263.14 194.59L264.33 192.41L265.59 190.29L266.93 188.22L268.35 186.2L269.84 184.25L271.41 182.35L273.04 180.52L274.75 178.75L276.52 177.04L278.35 175.41L280.25 173.84L282.2 172.35L284.22 170.93L286.29 169.59L288.41 168.33L290.59 167.14L292.81 166.04L295.09 165.03L297.41 164.1L299.77 163.26L302.18 162.51L304.62 161.86L307.1 161.3L309.62 160.84L312.17 160.47L314.75 160.21L317.36 160.05L320 160L322.64 160.05L325.25 160.21L327.83 160.47L330.38 160.84L332.9 161.3L335.38 161.86L337.82 162.51L340.23 163.26L342.59 164.1L344.91 165.03L347.19 166.04L349.41 167.14L351.59 168.33L353.71 169.59L355.78 170.93L357.8 172.35L359.75 173.84L361.65 175.41L363.48 177.04L365.25 178.75L366.96 180.52L368.59 182.35L370.16 184.25L371.65 186.2L373.07 188.22L374.41 190.29L375.67 192.41L376.86 194.59L377.96 196.81L378.97 199.09L379.9 201.41L380.74 203.77L381.49 206.18L382.14 208.62L382.7 211.1L383.16 213.62L383.53 216.17L383.79 218.75L383.95 221.36L384 224L383.99 224.69L383.95 225.4L383.89 226.14L383.81 226.9L383.7 227.69L383.57 228.49L383.42 229.31L383.25 230.15L383.06 231.01L382.85 231.88L382.62 232.76L382.37 233.65L382.1 234.55L381.82 235.46L381.52 236.37L381.2 237.29L380.87 238.21L380.53 239.13L380.17 240.05L379.8 240.96L379.42 241.87L379.02 242.77L378.61 243.67L378.19 244.55L377.77 245.43L377.33 246.29L376.88 247.13L376.43 247.96L375.96 248.77L375.5 249.56L375.02 250.33L374.54 251.07L374.05 251.8L373.56 252.49L373.07 253.16L372.57 253.79L372.07 254.39L371.57 254.97L371.06 255.5L370.56 256L320 306.56L318.64 307.98L317.3 309.45L315.98 310.96L314.67 312.53L313.39 314.14L312.13 315.79L310.89 317.49L309.67 319.22L308.47 320.99L307.31 322.8L306.16 324.64L305.04 326.51L303.95 328.41L302.89 330.34L301.86 332.3L300.86 334.28L299.88 336.28L298.94 338.3L298.03 340.34L297.16 342.4L296.32 344.47L295.51 346.55L294.74 348.65L294.01 350.75L293.32 352.86L292.66 354.97L292.04 357.09L291.46 359.21L290.93 361.33L290.44 363.44L289.98 365.55L289.58 367.65L289.21 369.75L288.9 371.83L288.63 373.9L288.4 375.96L288.23 378L288.1 380.02L288.03 382.02L288 384L288 416L352 416L352 384L352.01 383.29L352.05 382.56L352.11 381.8L352.19 381.02L352.3 380.22L352.43 379.41L352.58 378.57L352.75 377.72L352.94 376.86L353.16 375.98L353.38 375.1L353.63 374.21L353.9 373.3L354.18 372.4L354.48 371.48L354.8 370.57L355.13 369.66L355.47 368.74L355.83 367.83L356.2 366.92L356.58 366.02L356.98 365.12L357.39 364.23L357.81 363.36L358.23 362.49L358.67 361.64L359.12 360.8L359.57 359.98L360.04 359.18L360.51 358.4L360.98 357.63L361.46 356.89L361.95 356.18L362.44 355.49L362.93 354.83L363.43 354.2L363.93 353.6L364.43 353.03L364.94 352.5L365.44 352L416 301.44L417.36 300.02L418.7 298.55L420.02 297.04L421.33 295.47L422.61 293.86L423.87 292.21L425.11 290.51L426.33 288.78L427.53 287.01L428.7 285.2L429.84 283.36L430.96 281.49L432.05 279.59L433.11 277.66L434.14 275.7L435.14 273.72L436.12 271.72L437.06 269.7L437.97 267.66L438.84 265.6L439.68 263.53L440.49 261.45L441.26 259.35L441.99 257.25L442.68 255.14L443.34 253.03L443.96 250.91L444.54 248.79L445.07 246.67L445.57 244.56L446.02 242.45L446.42 240.35L446.79 238.25L447.1 236.17L447.37 234.1L447.6 232.04L447.77 230L447.9 227.98L447.97 225.98L448 224L447.89 218.72L447.58 213.5L447.05 208.34L446.32 203.24L445.4 198.2L444.28 193.24L442.97 188.35L441.47 183.54L439.8 178.82L437.94 174.18L435.91 169.63L433.71 165.18L431.35 160.82L428.82 156.58L426.14 152.43L423.3 148.4L420.32 144.49L417.19 140.7L413.92 137.03L410.51 133.49L406.97 130.08L403.3 126.81L399.51 123.68L395.6 120.7L391.57 117.86L387.42 115.18L383.18 112.65L378.82 110.29L374.37 108.09L369.82 106.06L365.18 104.2L360.46 102.53L355.65 101.03L350.76 99.72L345.8 98.6L340.76 97.68L335.66 96.95L330.5 96.42L325.28 96.11L320 96L314.72 96.11L309.5 96.42Z" id="d2ITKPb4dz"></path></defs><g><g><g><use xlink:href="#a4XUjSSIz9" opacity="1" fill="#000000" fill-opacity="0"></use><g><use xlink:href="#a4XUjSSIz9" opacity="1" fill-opacity="0" stroke="#000000" stroke-width="1" stroke-opacity="0"></use></g></g><g><use xlink:href="#c2aCQcb0xw" opacity="1" fill="#ffffff" fill-opacity="1"></use><g><use xlink:href="#c2aCQcb0xw" opacity="1" fill-opacity="0" stroke="#000000" stroke-width="1.5" stroke-opacity="1"></use></g></g><g><use xlink:href="#i1jcdYxiov" opacity="1" fill="#000000" fill-opacity="0"></use><g><use xlink:href="#i1jcdYxiov" opacity="1" fill-opacity="0" stroke="#000000" stroke-width="1" stroke-opacity="0"></use></g></g><g><use xlink:href="#d2ITKPb4dz" opacity="1" fill="#1cbcbf" fill-opacity="1"></use><g><use xlink:href="#d2ITKPb4dz" opacity="1" fill-opacity="0" stroke="#000000" stroke-width="1" stroke-opacity="0"></use></g></g></g></g></svg>